# xmcd
#
# Track frame offsets:
# 150
# 10872
# 25129
# 38243
# 57635
# 70747
# 83944
# 98836
# 107778
# 119580
# 143117
# 156544
# 170688
# 184965
# 194644
# 212358
# 224868
# 236720
# 248241
#
# Disc length: 3461 seconds
#
#
# Revision: 0
# Processed by: cddbd v1.5.1PL2 Copyright (c) Steve Scherf et al.
# Submitted via: FreeRIP 2.944 
#
DISCID=260d8313
DTITLE=Statler Brothers - The Gospel Spirit
DYEAR=2004
DGENRE=Gospel
TTITLE0=In The Beginning
TTITLE1=Have A Little Faith
TTITLE2=Song Of David
TTITLE3=The King Is Coming
TTITLE4=Who Do You Think?
TTITLE5=The Lord's Prayer
TTITLE6=How Great Thou Art
TTITLE7=There Is Power In The Blood
TTITLE8=Blessed Be
TTITLE9=Amazing Grace
TTITLE10=Love Lifted Me
TTITLE11=The Old Rugged Cross
TTITLE12=In The Garden
TTITLE13=I'll Fly Away
TTITLE14=Rock of Ages
TTITLE15=In The Sweet Bye And Bye
TTITLE16=When The Roll Is Called Up Yonder
TTITLE17=He's Got The Whole World In His Hands
TTITLE18=Turn Your Radio On
EXTD=
EXTT0=
EXTT1=
EXTT2=
EXTT3=
EXTT4=
EXTT5=
EXTT6=
EXTT7=
EXTT8=
EXTT9=
EXTT10=
EXTT11=
EXTT12=
EXTT13=
EXTT14=
EXTT15=
EXTT16=
EXTT17=
EXTT18=
PLAYORDER=
